<svg width="761" height="658" viewBox="0 0 761 658" fill="none" xmlns="http://www.w3.org/2000/svg">
<path d="M606.006 588.573V388.606M253.94 388.606V588.573M224.602 603.955H635.345M459.312 603.955V457.825C459.312 451.706 461.63 445.837 465.757 441.51C469.884 437.183 475.48 434.752 481.316 434.752H539.994C545.83 434.752 551.426 437.183 555.553 441.51C559.68 445.837 561.998 451.706 561.998 457.825V603.955M545.926 204.021H314.021C294.043 204.021 276 215.557 268.243 233.304L228.544 324.193C215.177 354.775 237.373 389.423 271.81 390.528H273.643C302.432 390.528 325.766 366.321 325.766 340.315C325.766 366.273 349.108 390.528 377.897 390.528C406.686 390.528 429.973 368.051 429.973 340.315C429.973 366.273 453.307 390.528 482.096 390.528C510.884 390.528 534.227 368.051 534.227 340.315C534.227 368.051 557.56 390.528 586.349 390.528H588.137C622.573 389.404 644.77 354.755 631.403 324.193L591.703 233.304C583.947 215.557 565.904 204.021 545.926 204.021ZM319.953 434.752H393.3C399.136 434.752 404.732 437.183 408.859 441.51C412.986 445.837 415.304 451.706 415.304 457.825V542.426H297.949V457.825C297.949 451.706 300.267 445.837 304.394 441.51C308.52 437.183 314.117 434.752 319.953 434.752Z" stroke="black" stroke-width="40" stroke-linecap="round" stroke-linejoin="round"/>
<path d="M351.608 167.54C351.608 99.6599 296.838 44.5873 229.331 44.5873C161.823 44.5873 107.053 99.6599 107.053 167.54C107.053 235.42 161.823 290.493 229.331 290.493C296.838 290.493 351.608 235.42 351.608 167.54Z" stroke="black" stroke-width="40" stroke-miterlimit="10"/>
<path d="M228.655 127.006V209.425M269.189 168.216H188.121" stroke="black" stroke-width="40" stroke-linecap="round" stroke-linejoin="round"/>
</svg>
