<svg width="118" height="125" viewBox="0 0 118 125" fill="none" xmlns="http://www.w3.org/2000/svg">
<rect x="1" y="2" width="60" height="122" rx="3" fill="white" stroke="#4683CC" stroke-width="2"/>
<path d="M8 4.5V3.25V2.16965L54 2V4.5C54 5.33333 53.54 7 51.7 7H49.4H11.45C10.3 7 8 6.5 8 4.5Z" fill="#97AFCC"/>
<path d="M8 2V2.16965M8 2.16965V3.25V4.5C8 6.5 10.3 7 11.45 7H49.4H51.7C53.54 7 54 5.33333 54 4.5V2L8 2.16965Z" stroke="#4683CC" stroke-width="2"/>
<rect x="4" y="9" width="54" height="112" rx="2" fill="#D9D9D9"/>
<rect x="11" y="116" width="40" height="3" fill="#4683CC"/>
<rect x="5" y="116" width="3" height="3" fill="#4683CC"/>
<rect x="54" y="116" width="3" height="3" fill="#4683CC"/>
<circle cx="62" cy="53" r="34" fill="#97AFCC" stroke="#4683CC" stroke-width="2"/>
<path d="M72 50.2278C70 52.2278 65.8 56.2277 61 56.2277V86.7277C74.2 86.3277 78.5 82.8944 79 81.2277V60.7277V50.2277C79 46.5399 74.1556 48.0723 72 50.2278Z" fill="#D9D9D9" stroke="#4683CC" stroke-width="2"/>
<path d="M50 50.2279C52 52.2281 56.2 56.2282 61 56.2282L61 86.73C54 87.5 45.5 83 43 81.2297V60.7285V50.2279C43 46.5398 47.8444 48.0723 50 50.2279Z" fill="#D9D9D9" stroke="#4683CC" stroke-width="2"/>
<circle cx="60.5" cy="38.5" r="10.5" fill="#D9D9D9" stroke="#4683CC" stroke-width="2"/>
<path d="M62.6855 65.6166C61.5005 65.8316 60.3074 65.9739 59.1729 66.3993C59.0348 66.4511 58.6162 66.5798 58.7631 66.5664C59.0433 66.5409 59.3332 66.3915 59.5916 66.2938C59.6838 66.2589 61.0099 65.7672 61.0321 65.8839C61.0917 66.1966 59.7039 66.3392 59.523 66.3448C59.2327 66.3538 59.9571 65.8395 60.0102 65.8065C60.2356 65.6667 60.47 65.5207 60.6522 65.3246C60.8785 65.081 60.9774 64.7459 61.1113 64.4487C61.1813 64.2933 61.2957 64.1118 61.2537 63.9315C61.2472 63.9032 61.1174 63.6943 61.1236 63.6853C61.244 63.5101 61.7656 63.824 61.8289 63.5393C61.854 63.4265 61.7016 63.4377 61.6407 63.3933C61.473 63.2709 61.3744 63.0751 61.2608 62.9078C61.1282 62.7126 60.5643 62.6348 60.5643 62.3872" stroke="#D9D9D9" stroke-width="3" stroke-linecap="square"/>
<path d="M60.8809 62.3555C61.0375 62.2145 61.1025 62.036 61.1025 61.8173C61.1025 61.701 60.9989 61.5447 60.9512 61.4374C60.9269 61.3827 60.9442 61.2908 60.9442 61.2316C60.9442 61.1393 60.8809 61.0953 60.8809 61.0011C60.8809 60.8663 60.8566 60.7229 60.8492 60.5825C60.8413 60.4333 60.7624 60.2861 60.7542 60.1393C60.7454 59.9812 60.7226 59.827 60.7226 59.6644C60.7226 59.39 60.7226 59.1156 60.7226 58.8412" stroke="#D9D9D9" stroke-width="3" stroke-linecap="square"/>
<path d="M60.7226 58.6512V58.8412" stroke="#D9D9D9" stroke-width="3" stroke-linecap="square"/>
<path d="M60.7166 84.7164H61.6121" stroke="#D9D9D9" stroke-width="2" stroke-linecap="square"/>
<path d="M60.8152 72.2857C60.6763 72.1777 60.6993 72.4866 60.6976 72.5444C60.6767 73.2456 60.6942 73.9495 60.6942 74.6508C60.6942 75.1469 60.6942 75.643 60.6942 76.1391C60.6942 76.2478 60.6997 75.9217 60.7077 75.8132C60.7544 75.1774 60.8741 74.5582 61.0067 73.9353C61.2381 72.8477 61.4938 71.772 61.5744 70.6597C61.5831 70.5404 61.7298 69.4623 61.5879 69.363C61.5778 69.3559 61.2654 70.1985 61.2586 70.2163C61.0046 70.8871 60.7066 71.5393 60.4322 72.2018C60.4264 72.2158 60.2051 72.8369 60.1634 72.5679C60.0662 71.94 60.0974 71.2726 60.0761 70.6396C60.0568 70.0638 60.0702 69.4647 59.9652 68.896C59.9506 68.8169 59.8977 68.3597 59.7502 68.6003C59.5105 68.9915 59.445 69.5527 59.3572 69.9945C59.2248 70.6602 59.7119 70.0202 59.9081 69.8198C60.5468 69.1676 62.9046 67.7409 62.112 68.1938C61.6095 68.481 60.8488 68.9363 60.2374 68.6776C59.8711 68.5226 60.5357 67.366 60.7278 67.1994C60.9438 67.0123 60.5264 67.7355 60.4557 68.0124C60.2768 68.7131 59.9955 69.5275 59.9955 70.2532C59.9955 70.6177 60.2261 70.8102 60.58 70.8075C61.3691 70.8017 62.0457 70.3063 62.5353 69.7258C62.8641 69.3359 63.6784 67.9789 62.6495 67.9352C62.3309 67.9216 62.0396 67.9645 61.7491 68.0998C61.6878 68.1283 61.4055 68.3474 61.3258 68.2677C61.1565 68.0984 61.316 67.4948 61.477 67.364C61.7235 67.1638 61.8919 67.4127 61.9641 67.6294" stroke="#D9D9D9" stroke-width="2" stroke-linecap="square"/>
<path d="M61.9037 72.83C61.3083 73.4849 61.2078 74.5514 61.1847 75.3833C61.1414 76.9435 61.2322 78.5053 61.1209 80.0631C61.0702 80.7735 61.1251 78.6386 61.1142 77.9264C61.1005 77.0296 61.0242 76.1371 61.1209 75.2422C61.1552 74.9246 61.3264 73.9813 61.2855 74.2981C61.213 74.8602 60.9516 75.4159 60.7547 75.9409C60.4771 76.6813 60.1974 77.4284 59.8611 78.1448C59.6249 78.648 59.746 77.3927 59.7536 77.2982C59.8012 76.7022 60.0078 76.1274 60.0291 75.5311C60.04 75.2252 60.053 75.3031 60.0895 75.5848C60.1805 76.2861 60.179 76.9912 60.2373 77.6946C60.2598 77.9645 60.3338 79.3711 60.8757 78.9376" stroke="#D9D9D9" stroke-width="2" stroke-linecap="square"/>
<path d="M61.1175 80.8727C61.124 80.9883 61.4535 82.2346 61.1343 81.9982C60.5479 81.5638 60.1713 80.5877 60.2373 79.8783C60.2682 79.5476 60.3394 79.1969 60.4524 78.8839C60.5253 78.6817 60.6189 78.6157 60.6304 78.8738C60.6672 79.7022 60.6395 80.5422 60.3583 81.3296C60.3095 81.4662 60.1737 81.9367 59.982 81.9914C59.8788 82.0209 60.1667 81.4353 60.1836 81.4035C60.1916 81.3885 60.3825 80.9634 60.4255 81.0541C60.5078 81.2279 60.4524 81.5204 60.4524 81.7092C60.4524 81.9763 60.5605 81.8806 60.7547 81.7932C60.9652 81.6985 61.3899 82.2747 61.262 82.5021C61.0564 82.8675 60.4171 82.7473 60.0895 82.7473C59.8862 82.7473 59.598 82.6925 59.4109 82.7776C58.9174 83.0019 60.4882 82.6363 61.0302 82.6264C61.1161 82.6248 61.6277 82.5375 61.5073 82.744C61.4111 82.9088 61.1729 82.7976 61.1175 82.6869" stroke="#D9D9D9" stroke-width="2" stroke-linecap="square"/>
<path d="M60.4556 84.8456C60.5576 84.7828 60.7357 84.7882 60.8509 84.7622C61.2163 84.6797 61.5772 84.5941 61.9257 84.4533C62.0115 84.4187 62.0906 84.3771 62.1728 84.336C62.1893 84.3277 62.2281 84.3287 62.2223 84.3113C62.1983 84.2395 61.8 84.323 61.7621 84.3298C61.3889 84.3964 61.0255 84.4884 60.6471 84.5275C60.6305 84.5292 60.3313 84.5398 60.5143 84.5398C60.5914 84.5398 61.0927 84.483 60.9528 84.6695C60.8539 84.8015 60.702 84.8729 60.5544 84.9352C60.4877 84.9633 60.2545 85.0221 60.4556 85.0062C60.6953 84.9873 60.9345 84.9597 61.1752 84.9568C61.3077 84.9552 61.253 84.9657 61.1536 84.9908C61.0189 85.0248 60.8856 85.0648 60.7459 85.068C60.5164 85.0732 61.2051 85.068 61.4347 85.068C61.7251 85.068 62.0836 85.0106 62.3705 85.068C62.4535 85.0846 62.2016 85.078 62.1172 85.085C61.9235 85.101 61.7304 85.1246 61.5366 85.139C61.4068 85.1486 60.6965 85.1735 61.2154 85.1792C61.2934 85.18 61.4652 85.1929 61.2895 85.2471C60.906 85.3654 60.5063 85.4233 60.1158 85.5127C60.0839 85.5201 59.8635 85.5515 59.8301 85.5915C59.7763 85.656 59.9985 85.588 60.0819 85.5776C60.4298 85.5341 60.7714 85.4482 61.1196 85.4077C61.244 85.3933 61.0878 85.4572 61.0517 85.4726C60.936 85.5218 60.7597 85.4814 60.6378 85.4849C59.862 85.5073 62.1887 85.6417 62.9635 85.5961C63.4322 85.5686 62.0229 85.5594 61.5551 85.5992C61.2261 85.6272 60.2491 85.7937 60.5729 85.7289C60.5911 85.7253 60.8046 85.6979 60.8046 85.6795C60.8046 85.6714 60.6978 85.6898 60.7644 85.7011C60.8112 85.7091 61.0139 85.6933 60.925 85.6023C60.8578 85.5335 60.7391 85.5103 60.6502 85.4849" stroke="url(#paint0_linear_0_1)" stroke-width="2" stroke-linecap="square"/>
<path d="M14.1467 102.182H14.6779V106.034C14.6779 106.43 14.5851 106.784 14.3995 107.097C14.2139 107.407 13.9554 107.652 13.6239 107.832C13.2944 108.01 12.9109 108.099 12.4734 108.099C12.0378 108.099 11.6542 108.009 11.3228 107.83C10.9914 107.65 10.7328 107.404 10.5472 107.094C10.3616 106.783 10.2688 106.43 10.2688 106.034V102.182H10.8001V105.997C10.8001 106.306 10.8692 106.581 11.0075 106.824C11.1457 107.064 11.3398 107.254 11.5898 107.392C11.8417 107.53 12.1362 107.599 12.4734 107.599C12.8105 107.599 13.105 107.53 13.3569 107.392C13.6088 107.254 13.8029 107.064 13.9393 106.824C14.0775 106.581 14.1467 106.306 14.1467 105.997V102.182ZM16.7532 102.182V108H16.2219V102.182H16.7532ZM21.4592 103.636C21.427 103.312 21.284 103.055 21.0302 102.864C20.7764 102.672 20.4573 102.577 20.0728 102.577C19.802 102.577 19.5633 102.623 19.3569 102.716C19.1523 102.809 18.9914 102.937 18.8739 103.102C18.7584 103.265 18.7006 103.451 18.7006 103.659C18.7006 103.812 18.7338 103.947 18.8001 104.062C18.8664 104.178 18.9554 104.277 19.0671 104.361C19.1808 104.442 19.3058 104.512 19.4421 104.571C19.5804 104.63 19.7196 104.679 19.8597 104.719L20.4734 104.895C20.659 104.946 20.8446 105.011 21.0302 105.091C21.2158 105.17 21.3853 105.271 21.5387 105.392C21.694 105.511 21.8181 105.658 21.9109 105.832C22.0056 106.005 22.0529 106.212 22.0529 106.455C22.0529 106.765 21.9724 107.045 21.8114 107.293C21.6505 107.541 21.4194 107.738 21.1183 107.884C20.8171 108.027 20.4563 108.099 20.0359 108.099C19.64 108.099 19.2963 108.034 19.0046 107.903C18.7129 107.771 18.4838 107.588 18.3171 107.355C18.1504 107.122 18.0567 106.852 18.0359 106.545H18.5813C18.6003 106.775 18.676 106.969 18.8086 107.128C18.9412 107.287 19.1135 107.408 19.3256 107.491C19.5378 107.573 19.7745 107.614 20.0359 107.614C20.3256 107.614 20.5832 107.565 20.8086 107.469C21.0359 107.37 21.2139 107.234 21.3427 107.06C21.4734 106.884 21.5387 106.679 21.5387 106.446C21.5387 106.249 21.4876 106.084 21.3853 105.952C21.283 105.817 21.14 105.705 20.9563 105.614C20.7745 105.523 20.5633 105.442 20.3228 105.372L19.6268 105.168C19.1703 105.031 18.8162 104.843 18.5643 104.602C18.3124 104.362 18.1864 104.055 18.1864 103.682C18.1864 103.369 18.2698 103.095 18.4364 102.858C18.605 102.619 18.8323 102.434 19.1183 102.301C19.4061 102.167 19.729 102.099 20.087 102.099C20.4487 102.099 20.7688 102.166 21.0472 102.298C21.3256 102.431 21.5463 102.614 21.7092 102.847C21.8739 103.078 21.962 103.341 21.9734 103.636H21.4592ZM25.5813 108V102.182H26.1126V104.849H29.4137V102.182H29.945V108H29.4137V105.327H26.1126V108H25.5813ZM36.2575 105.091C36.2575 105.697 36.1495 106.224 35.9336 106.673C35.7177 107.12 35.4203 107.467 35.0415 107.713C34.6647 107.957 34.2309 108.08 33.7404 108.08C33.2499 108.08 32.8152 107.957 32.4364 107.713C32.0595 107.467 31.7631 107.12 31.5472 106.673C31.3332 106.224 31.2262 105.697 31.2262 105.091C31.2262 104.485 31.3332 103.958 31.5472 103.511C31.7631 103.062 32.0605 102.716 32.4393 102.472C32.8181 102.225 33.2518 102.102 33.7404 102.102C34.2309 102.102 34.6647 102.225 35.0415 102.472C35.4203 102.716 35.7177 103.062 35.9336 103.511C36.1495 103.958 36.2575 104.485 36.2575 105.091ZM35.7404 105.091C35.7404 104.57 35.6533 104.124 35.479 103.753C35.3048 103.38 35.0671 103.095 34.766 102.898C34.4648 102.701 34.123 102.602 33.7404 102.602C33.3597 102.602 33.0188 102.701 32.7177 102.898C32.4165 103.095 32.1779 103.379 32.0018 103.75C31.8275 104.121 31.7404 104.568 31.7404 105.091C31.7404 105.612 31.8275 106.058 32.0018 106.429C32.176 106.8 32.4137 107.085 32.7148 107.284C33.016 107.481 33.3578 107.58 33.7404 107.58C34.123 107.58 34.4648 107.481 34.766 107.284C35.069 107.087 35.3076 106.803 35.4819 106.432C35.6561 106.059 35.7423 105.612 35.7404 105.091ZM41.4201 102.182H41.9513V106.034C41.9513 106.43 41.8585 106.784 41.6729 107.097C41.4873 107.407 41.2288 107.652 40.8974 107.832C40.5678 108.01 40.1843 108.099 39.7468 108.099C39.3112 108.099 38.9277 108.009 38.5962 107.83C38.2648 107.65 38.0063 107.404 37.8207 107.094C37.6351 106.783 37.5423 106.43 37.5423 106.034V102.182H38.0735V105.997C38.0735 106.306 38.1426 106.581 38.2809 106.824C38.4192 107.064 38.6133 107.254 38.8633 107.392C39.1152 107.53 39.4097 107.599 39.7468 107.599C40.0839 107.599 40.3784 107.53 40.6303 107.392C40.8822 107.254 41.0763 107.064 41.2127 106.824C41.351 106.581 41.4201 106.306 41.4201 105.997V102.182ZM46.6545 103.636C46.6223 103.312 46.4793 103.055 46.2255 102.864C45.9717 102.672 45.6526 102.577 45.2681 102.577C44.9973 102.577 44.7586 102.623 44.5522 102.716C44.3477 102.809 44.1867 102.937 44.0692 103.102C43.9537 103.265 43.896 103.451 43.896 103.659C43.896 103.812 43.9291 103.947 43.9954 104.062C44.0617 104.178 44.1507 104.277 44.2624 104.361C44.3761 104.442 44.5011 104.512 44.6374 104.571C44.7757 104.63 44.9149 104.679 45.055 104.719L45.6687 104.895C45.8543 104.946 46.0399 105.011 46.2255 105.091C46.4111 105.17 46.5806 105.271 46.734 105.392C46.8893 105.511 47.0134 105.658 47.1062 105.832C47.2009 106.005 47.2482 106.212 47.2482 106.455C47.2482 106.765 47.1677 107.045 47.0067 107.293C46.8458 107.541 46.6147 107.738 46.3136 107.884C46.0124 108.027 45.6516 108.099 45.2312 108.099C44.8353 108.099 44.4916 108.034 44.1999 107.903C43.9083 107.771 43.6791 107.588 43.5124 107.355C43.3458 107.122 43.252 106.852 43.2312 106.545H43.7766C43.7956 106.775 43.8713 106.969 44.0039 107.128C44.1365 107.287 44.3088 107.408 44.521 107.491C44.7331 107.573 44.9698 107.614 45.2312 107.614C45.521 107.614 45.7785 107.565 46.0039 107.469C46.2312 107.37 46.4092 107.234 46.538 107.06C46.6687 106.884 46.734 106.679 46.734 106.446C46.734 106.249 46.6829 106.084 46.5806 105.952C46.4783 105.817 46.3353 105.705 46.1516 105.614C45.9698 105.523 45.7586 105.442 45.5181 105.372L44.8221 105.168C44.3656 105.031 44.0115 104.843 43.7596 104.602C43.5077 104.362 43.3817 104.055 43.3817 103.682C43.3817 103.369 43.4651 103.095 43.6317 102.858C43.8003 102.619 44.0276 102.434 44.3136 102.301C44.6014 102.167 44.9244 102.099 45.2823 102.099C45.6441 102.099 45.9641 102.166 46.2425 102.298C46.521 102.431 46.7416 102.614 46.9045 102.847C47.0692 103.078 47.1573 103.341 47.1687 103.636H46.6545ZM48.5266 108V102.182H51.9016V102.659H49.0579V104.849H51.7227V105.327H49.0579V107.523H51.9585V108H48.5266Z" fill="#4683CC"/>
<rect x="76.7242" width="4" height="15" transform="rotate(18.3575 76.7242 0)" fill="#4683CC"/>
<rect x="99.1787" y="12.5436" width="4" height="15" transform="rotate(46.1905 99.1787 12.5436)" fill="#4683CC"/>
<rect x="111.664" y="29" width="4" height="15" transform="rotate(65.6329 111.664 29)" fill="#4683CC"/>
<rect x="117" y="50" width="4" height="15" transform="rotate(89.8476 117 50)" fill="#4683CC"/>
<rect x="81.1595" y="103.982" width="4" height="15" transform="rotate(158.773 81.1595 103.982)" fill="#4683CC"/>
<rect x="103.321" y="88.7587" width="4" height="15" transform="rotate(135.828 103.321 88.7587)" fill="#4683CC"/>
<rect x="114.27" y="71.2421" width="4" height="15" transform="rotate(112.224 114.27 71.2421)" fill="#4683CC"/>
<defs>
<linearGradient id="paint0_linear_0_1" x1="61.4398" y1="84.2823" x2="61.4398" y2="85.7438" gradientUnits="userSpaceOnUse">
<stop stop-color="#D9D9D9"/>
<stop offset="1" stop-color="#D9D9D9" stop-opacity="0"/>
</linearGradient>
</defs>
</svg>
